<svg xmlns="http://www.w3.org/2000/svg" viewBox="0 0 256 256" role="img" aria-label="CrisisLens logo">
  <defs>
    <linearGradient id="rim" x1="33" y1="17" x2="222" y2="238" gradientUnits="userSpaceOnUse">
      <stop stop-color="#e5f8ff"/>
      <stop offset=".28" stop-color="#7dd3fc"/>
      <stop offset=".62" stop-color="#0369a1"/>
      <stop offset="1" stop-color="#bae6fd"/>
    </linearGradient>
    <linearGradient id="glass" x1="50" y1="42" x2="205" y2="221" gradientUnits="userSpaceOnUse">
      <stop stop-color="#06111f"/>
      <stop offset="1" stop-color="#020817"/>
    </linearGradient>
    <filter id="glow" x="-30%" y="-30%" width="160%" height="160%">
      <feGaussianBlur stdDeviation="3.5" result="blur"/>
      <feMerge>
        <feMergeNode in="blur"/>
        <feMergeNode in="SourceGraphic"/>
      </feMerge>
    </filter>
  </defs>
  <path d="M128 12 220 45v70c0 57-35 108-92 129C71 223 36 172 36 115V45l92-33Z" fill="url(#rim)"/>
  <path d="M128 26 204 54v61c0 47-28 90-76 109-48-19-76-62-76-109V54l76-28Z" fill="url(#glass)" stroke="#7dd3fc" stroke-width="3"/>
  <path d="M128 28v194M53 115h150M128 114 58 52M128 114l74-61M128 114 63 204M128 114l65 92" stroke="#38bdf8" stroke-width="5" stroke-linecap="round" opacity=".82"/>
  <circle cx="128" cy="114" r="20" fill="#0e7490" stroke="#a5f3fc" stroke-width="5" filter="url(#glow)"/>
  <circle cx="128" cy="114" r="8" fill="#cffafe"/>
  <path d="M67 92c17-21 40-24 57-13-14 4-20 16-23 28-9-13-20-14-34-15Z" fill="#22d3ee" opacity=".95"/>
  <path d="M58 110c20 7 38 7 58-1-15 17-38 26-61 19 0-7 1-12 3-18Z" fill="#0284c7"/>
  <path d="M145 78c21-17 42-9 54 7-18-3-33 5-47 19-2-10-4-18-7-26Z" fill="#c4a46b"/>
  <path d="M153 103c11-13 26-20 44-17-8 14-23 24-42 28l-2-11Z" fill="#7c5b36"/>
  <path d="M69 170h18v-20l22-17 23 17v20h16v22H69v-22Z" fill="#f59e0b"/>
  <path d="M82 151 109 130l28 21-8 8-20-15-20 15-7-8Z" fill="#fde68a"/>
  <path d="M171 188c-16-16 2-31 3-50 10 10 11 21 8 32 8-6 12-14 13-24 20 25 6 50-24 53Z" fill="#f97316"/>
  <path d="M181 192c-8-10 4-21 4-32 9 10 8 25-4 32Z" fill="#fde047"/>
  <g fill="none" stroke="#38bdf8" stroke-width="3" opacity=".65">
    <path d="M75 55h16m75 0h18M78 212h20m62 0h21"/>
    <circle cx="91" cy="55" r="4"/><circle cx="184" cy="55" r="4"/>
    <circle cx="98" cy="212" r="4"/><circle cx="160" cy="212" r="4"/>
  </g>
</svg>
